<?xml version="1.0" encoding="UTF-8"?>
<svg width="403px" height="197px" viewBox="0 0 403 197" version="1.1" xmlns="http://www.w3.org/2000/svg" xmlns:xlink="http://www.w3.org/1999/xlink">
    <title>atom/logo/large/standard/white</title>
    <defs>
        <polygon id="path-1" points="0.342 18.94 17.466 18.94 17.466 9.553 17.466 0.166 0.342 0.166"></polygon>
    </defs>
    <g id="atom/logo/large/standard/white" stroke="none" stroke-width="1" fill="none" fill-rule="evenodd">
        <g id="logo/large/standard">
            <path d="M88.182,97.013 L57.99,97.013 L72.793,47.73 L73.378,47.73 L88.182,97.013 Z M144.867,147.074 L87.598,2.928 L58.574,2.928 L0.721,147.074 L40.264,147.074 L47.86,126.232 L97.922,126.232 L104.934,147.074 L144.867,147.074 L144.867,147.074 Z" id="Fill-1" fill="#FFFFFF"></path>
            <path d="M287.094,51.703 C280.39,29.425 256.662,0.201 215.285,0.201 C168.145,0.201 139.705,37.991 139.705,74.806 C139.705,113.765 170.483,149.801 215.675,149.801 C247.969,149.801 275.737,130.411 286.317,100.466 L245.874,100.466 C240.901,107.894 231.48,117.465 215.285,117.465 C191.326,117.465 176.521,96.428 176.521,74.611 C176.521,54.158 190.351,32.536 215.09,32.536 C231.428,32.536 241.702,42.282 247.114,51.703 L287.094,51.703" id="Fill-2" fill="#FFFFFF"></path>
            <polyline id="Fill-3" fill="#FFFFFF" points="341.388 114.739 341.388 90 401.055 90 401.055 57.665 341.388 57.665 341.388 35.263 402.418 35.263 402.418 2.928 306.13 2.928 306.13 147.074 402.418 147.074 402.418 114.739 341.388 114.739"></polyline>
            <path d="M258.794,81.435 C258.794,92.292 267.625,96.032 273.288,96.032 C279.313,96.032 287.469,92.136 287.469,81.435 L287.469,70.734 C287.469,59.357 278.222,56.137 273.288,56.137 C267.781,56.137 258.794,59.618 258.794,70.734 L258.794,81.435 Z M268.612,70.474 C268.612,68.397 269.235,64.76 273.132,64.76 C277.651,64.76 277.651,69.279 277.651,70.474 L277.651,81.694 C277.651,82.838 277.651,87.409 273.132,87.409 C269.34,87.409 268.612,83.981 268.612,81.694 L268.612,70.474 L268.612,70.474 Z" id="Fill-4" fill="#FFFFFF"></path>
            <path d="M249.42,56.864 L238.043,56.864 L228.484,70.89 C226.562,73.851 224.952,77.279 224.952,81.175 C224.952,84.136 225.784,88.084 228.224,90.837 C230.822,94.266 235.29,96.032 240.121,96.032 C248.224,96.032 255.03,90.162 255.03,81.383 C255.03,72.656 248.536,68.345 242.926,68.345 C242.199,68.345 241.523,68.345 241.055,68.552 L240.952,68.448 L249.42,56.864 Z M234.614,82.058 C234.614,79.357 236.692,76.967 239.809,76.967 C243.342,76.967 245.212,79.721 245.212,82.214 C245.212,85.279 242.719,87.409 239.809,87.409 C237.42,87.409 234.614,85.643 234.614,82.058 L234.614,82.058 Z" id="Fill-5" fill="#FFFFFF"></path>
            <path d="M193.472,83.825 C193.629,85.227 193.888,88.136 195.603,90.629 C198.096,94.318 203.135,96.032 207.602,96.032 C215.342,96.032 221.836,90.682 221.836,83.981 C221.836,82.682 221.836,77.124 214.615,74.682 C216.017,73.902 219.706,71.928 219.706,66.63 C219.706,61.228 215.135,56.137 207.654,56.137 C202.408,56.137 194.668,58.89 194.512,68.085 L204.174,68.085 C204.225,67.149 204.33,64.76 207.186,64.76 C209.108,64.76 209.888,66.474 209.888,68.137 C209.888,71.981 205.94,71.981 205.056,71.981 L203.394,71.981 L203.394,79.202 L206.875,79.202 C208.277,79.202 212.017,79.461 212.017,83.097 C212.017,85.539 210.667,87.409 207.81,87.409 C204.277,87.356 203.602,84.708 203.394,83.825 L193.472,83.825" id="Fill-6" fill="#FFFFFF"></path>
            <g id="Group-10" transform="translate(385.000000, 178.000000)">
                <mask id="mask-2" fill="white">
                    <use xlink:href="#path-1"></use>
                </mask>
                <g id="Clip-8"></g>
                <polygon id="Fill-7" fill="#FFFFFF" mask="url(#mask-2)" points="14.815 14.285 17.466 14.285 17.466 11.175 14.815 11.175"></polygon>
                <polyline id="Fill-9" fill="#FFFFFF" mask="url(#mask-2)" points="14.462 0.166 11.607 0.166 7.35 11.125 3.196 0.166 0.342 0.166 5.974 14.004 3.91 19 6.662 19 14.462 0.166"></polyline>
            </g>
            <polygon id="Fill-11" fill="#FFFFFF" points="380.973 192.286 383.624 192.286 383.624 173.425 380.973 173.425"></polygon>
            <path d="M378.285,186.373 C378.31,186.194 378.361,185.48 378.361,185.021 C378.336,180.892 374.997,177.783 371.175,177.783 C367.198,177.783 363.935,180.968 363.935,185.2 C363.935,189.202 367.122,192.641 371.123,192.641 C373.314,192.641 376.552,191.495 377.902,187.85 L375.252,187.85 C374.614,189.074 373.187,190.22 371.224,190.22 C369.441,190.22 367.249,189.099 366.587,186.373 L378.285,186.373 Z M366.587,184.333 C366.714,182.269 368.599,180.205 371.148,180.205 C373.697,180.205 375.583,182.269 375.711,184.333 L366.587,184.333 L366.587,184.333 Z" id="Fill-12" fill="#FFFFFF"></path>
            <path d="M359.721,192.285 L359.721,184.562 C359.721,182.549 360.434,181.479 361.275,181.02 C361.912,180.689 362.779,180.51 363.186,180.51 L363.186,177.783 C362.524,177.808 360.715,177.86 359.594,179.44 L359.542,179.44 L359.542,178.166 L357.07,178.166 L357.07,192.285 L359.721,192.285" id="Fill-13" fill="#FFFFFF"></path>
            <path d="M341.146,178.166 L341.146,185.811 C341.146,188.64 341.834,190.22 343.007,191.24 C344.026,192.132 345.428,192.641 347.034,192.641 C348.817,192.641 350.474,191.979 351.188,190.755 L351.238,190.755 L351.238,192.285 L353.66,192.285 L353.66,178.166 L351.009,178.166 L351.009,185.735 C351.009,188.819 349.506,190.22 347.313,190.22 C345.351,190.22 343.797,189.303 343.797,185.811 L343.797,178.166 L341.146,178.166" id="Fill-14" fill="#FFFFFF"></path>
            <path d="M338.868,182.855 C338.333,180.765 335.936,177.783 331.935,177.783 C327.475,177.783 324.672,181.376 324.672,185.2 C324.672,188.844 327.271,192.641 331.91,192.641 C335.045,192.641 337.798,190.755 338.868,187.621 L335.911,187.621 C335.248,189.074 333.898,190.22 331.91,190.22 C328.877,190.22 327.322,187.646 327.322,185.2 C327.322,183.058 328.546,180.205 331.961,180.205 C334.483,180.205 335.504,181.962 335.936,182.855 L338.868,182.855" id="Fill-15" fill="#FFFFFF"></path>
            <path d="M322.791,186.373 C322.816,186.194 322.867,185.48 322.867,185.021 C322.842,180.892 319.503,177.783 315.68,177.783 C311.704,177.783 308.441,180.968 308.441,185.2 C308.441,189.202 311.628,192.641 315.629,192.641 C317.821,192.641 321.057,191.495 322.409,187.85 L319.758,187.85 C319.121,189.074 317.693,190.22 315.73,190.22 C313.947,190.22 311.755,189.099 311.093,186.373 L322.791,186.373 Z M311.093,184.333 C311.22,182.269 313.105,180.205 315.655,180.205 C318.203,180.205 320.089,182.269 320.217,184.333 L311.093,184.333 L311.093,184.333 Z" id="Fill-16" fill="#FFFFFF"></path>
            <path d="M306.503,181.912 C306.426,178.777 303.775,177.783 302.17,177.783 C299.494,177.783 297.735,179.771 297.735,181.861 C297.735,184.869 300.181,185.556 301.711,186.117 C303.088,186.602 304.183,187.035 304.183,188.284 C304.183,189.481 303.342,190.22 302.144,190.22 C300.666,190.22 299.85,189.227 299.749,187.646 L297.098,187.646 C297.098,191.52 300.309,192.641 302.094,192.641 C305.1,192.641 306.834,190.628 306.834,188.13 C306.834,184.766 303.674,183.875 302.578,183.543 C301.405,183.186 300.386,182.88 300.386,181.708 C300.386,180.816 301.074,180.205 302.042,180.205 C303.011,180.205 303.699,180.765 303.852,181.912 L306.503,181.912" id="Fill-17" fill="#FFFFFF"></path>
            <path d="M287.337,189.175 L284.686,189.175 L284.686,192.285 L285.629,192.285 L285.629,192.514 C285.629,193.584 285.068,193.789 284.686,193.941 L284.686,195.522 C287.235,195.012 287.337,192.973 287.337,192.004 L287.337,189.175" id="Fill-18" fill="#FFFFFF"></path>
            <path d="M282.293,186.373 C282.318,186.194 282.37,185.48 282.37,185.021 C282.345,180.892 279.006,177.783 275.182,177.783 C271.206,177.783 267.944,180.968 267.944,185.2 C267.944,189.202 271.131,192.641 275.132,192.641 C277.323,192.641 280.559,191.495 281.911,187.85 L279.26,187.85 C278.623,189.074 277.195,190.22 275.233,190.22 C273.449,190.22 271.258,189.099 270.595,186.373 L282.293,186.373 Z M270.595,184.333 C270.722,182.269 272.608,180.205 275.157,180.205 C277.706,180.205 279.592,182.269 279.719,184.333 L270.595,184.333 L270.595,184.333 Z" id="Fill-19" fill="#FFFFFF"></path>
            <polyline id="Fill-20" fill="#FFFFFF" points="264.904 180.586 267.223 180.586 267.223 178.166 264.904 178.166 264.904 173.425 262.253 173.425 262.253 178.166 260.342 178.166 260.342 180.586 262.253 180.586 262.253 192.285 264.904 192.285 264.904 180.586"></polyline>
            <path d="M258.331,192.285 L258.331,178.166 L255.68,178.166 L255.68,180.154 L255.63,180.154 C254.61,178.598 252.801,177.783 250.838,177.783 C245.766,177.783 243.345,181.835 243.345,185.277 C243.345,188.998 246.072,192.641 250.838,192.641 C252.75,192.641 254.61,191.827 255.63,190.093 L255.68,190.093 L255.68,192.285 L258.331,192.285 Z M255.731,185.25 C255.731,187.952 253.591,190.22 250.812,190.22 C248.009,190.22 245.996,187.799 245.996,185.25 C245.996,183.033 247.575,180.205 250.838,180.205 C253.565,180.205 255.731,182.244 255.731,185.25 L255.731,185.25 Z" id="Fill-21" fill="#FFFFFF"></path>
            <path d="M239.171,192.285 L239.171,184.562 C239.171,182.549 239.885,181.479 240.724,181.02 C241.362,180.689 242.228,180.51 242.637,180.51 L242.637,177.783 C241.974,177.808 240.164,177.86 239.043,179.44 L238.992,179.44 L238.992,178.166 L236.52,178.166 L236.52,192.285 L239.171,192.285" id="Fill-22" fill="#FFFFFF"></path>
            <path d="M233.921,185.174 C233.921,181.148 230.582,177.783 226.301,177.783 C221.917,177.783 218.68,181.275 218.68,185.123 C218.68,188.691 221.559,192.641 226.301,192.641 C231.092,192.641 233.921,188.615 233.921,185.174 M231.269,185.174 C231.269,187.85 229.154,190.22 226.301,190.22 C223.344,190.22 221.33,187.749 221.33,185.2 C221.33,182.676 223.318,180.205 226.301,180.205 C229.282,180.205 231.269,182.676 231.269,185.174" id="Fill-23" fill="#FFFFFF"></path>
            <path d="M204.629,192.285 L204.629,190.246 L204.68,190.246 C206.133,192.183 208.3,192.641 209.599,192.641 C213.727,192.641 216.862,189.303 216.862,185.225 C216.862,180.867 213.295,177.783 209.548,177.783 C207.637,177.783 205.852,178.523 204.706,180.127 L204.654,180.127 L204.654,173.425 L202.004,173.425 L202.004,192.285 L204.629,192.285 Z M204.578,185.174 C204.578,182.676 206.489,180.205 209.395,180.205 C212.173,180.205 214.212,182.575 214.212,185.225 C214.212,188.029 211.943,190.22 209.395,190.22 C207.025,190.22 204.578,188.36 204.578,185.174 L204.578,185.174 Z" id="Fill-24" fill="#FFFFFF"></path>
            <path d="M198.581,192.285 L198.581,178.166 L195.93,178.166 L195.93,180.154 L195.88,180.154 C194.861,178.598 193.051,177.783 191.088,177.783 C186.016,177.783 183.596,181.835 183.596,185.277 C183.596,188.998 186.322,192.641 191.088,192.641 C192.999,192.641 194.861,191.827 195.88,190.093 L195.93,190.093 L195.93,192.285 L198.581,192.285 Z M195.982,185.25 C195.982,187.952 193.841,190.22 191.063,190.22 C188.26,190.22 186.245,187.799 186.245,185.25 C186.245,183.033 187.826,180.205 191.088,180.205 C193.815,180.205 195.982,182.244 195.982,185.25 L195.982,185.25 Z" id="Fill-25" fill="#FFFFFF"></path>
            <polygon id="Fill-26" fill="#FFFFFF" points="178.315 192.286 180.965 192.286 180.965 173.425 178.315 173.425"></polygon>
            <polygon id="Fill-27" fill="#FFFFFF" points="172.287 192.286 174.938 192.286 174.938 173.425 172.287 173.425"></polygon>
            <path d="M169.65,185.174 C169.65,181.148 166.311,177.783 162.03,177.783 C157.646,177.783 154.409,181.275 154.409,185.123 C154.409,188.691 157.289,192.641 162.03,192.641 C166.821,192.641 169.65,188.615 169.65,185.174 M166.999,185.174 C166.999,187.85 164.884,190.22 162.03,190.22 C159.073,190.22 157.059,187.749 157.059,185.2 C157.059,182.676 159.047,180.205 162.03,180.205 C165.012,180.205 166.999,182.676 166.999,185.174" id="Fill-28" fill="#FFFFFF"></path>
            <path d="M152.882,182.855 C152.347,180.765 149.951,177.783 145.95,177.783 C141.49,177.783 138.686,181.376 138.686,185.2 C138.686,188.844 141.285,192.641 145.924,192.641 C149.059,192.641 151.812,190.755 152.882,187.621 L149.926,187.621 C149.264,189.074 147.912,190.22 145.924,190.22 C142.891,190.22 141.337,187.646 141.337,185.2 C141.337,183.058 142.56,180.205 145.975,180.205 C148.499,180.205 149.518,181.962 149.951,182.855 L152.882,182.855" id="Fill-29" fill="#FFFFFF"></path>
            <polyline id="Fill-30" fill="#FFFFFF" points="104.257 180.586 106.576 180.586 106.576 178.166 104.257 178.166 104.257 173.425 101.607 173.425 101.607 178.166 99.695 178.166 99.695 180.586 101.607 180.586 101.607 192.285 104.257 192.285 104.257 180.586"></polyline>
            <path d="M98.917,182.855 C98.382,180.765 95.987,177.783 91.985,177.783 C87.525,177.783 84.722,181.376 84.722,185.2 C84.722,188.844 87.321,192.641 91.96,192.641 C95.094,192.641 97.848,190.755 98.917,187.621 L95.961,187.621 C95.298,189.074 93.948,190.22 91.96,190.22 C88.927,190.22 87.372,187.646 87.372,185.2 C87.372,183.058 88.595,180.205 92.011,180.205 C94.534,180.205 95.553,181.962 95.987,182.855 L98.917,182.855" id="Fill-31" fill="#FFFFFF"></path>
            <path d="M82.841,186.373 C82.867,186.194 82.917,185.48 82.917,185.021 C82.891,180.892 79.553,177.783 75.73,177.783 C71.754,177.783 68.492,180.968 68.492,185.2 C68.492,189.202 71.678,192.641 75.679,192.641 C77.87,192.641 81.108,191.495 82.458,187.85 L79.808,187.85 C79.17,189.074 77.744,190.22 75.781,190.22 C73.997,190.22 71.805,189.099 71.142,186.373 L82.841,186.373 Z M71.142,184.333 C71.269,182.269 73.156,180.205 75.704,180.205 C78.253,180.205 80.139,182.269 80.266,184.333 L71.142,184.333 L71.142,184.333 Z" id="Fill-32" fill="#FFFFFF"></path>
            <path d="M65.969,192.285 L65.969,183.925 C65.943,182.345 65.637,181.224 65.077,180.306 C64.057,178.726 62.273,177.783 60.081,177.783 C59.52,177.783 57.38,177.783 55.952,179.668 L55.901,179.668 L55.901,178.166 L53.43,178.166 L53.43,192.285 L56.08,192.285 L56.08,184.587 C56.08,181.759 57.583,180.205 59.801,180.205 C63.318,180.205 63.318,183.518 63.318,184.614 L63.318,192.285 L65.969,192.285" id="Fill-33" fill="#FFFFFF"></path>
            <path d="M50.078,192.285 L50.078,183.925 C50.053,182.345 49.746,181.224 49.186,180.306 C48.167,178.726 46.382,177.783 44.191,177.783 C43.63,177.783 41.489,177.783 40.062,179.668 L40.011,179.668 L40.011,178.166 L37.538,178.166 L37.538,192.285 L40.189,192.285 L40.189,184.587 C40.189,181.759 41.693,180.205 43.91,180.205 C47.428,180.205 47.428,183.518 47.428,184.614 L47.428,192.285 L50.078,192.285" id="Fill-34" fill="#FFFFFF"></path>
            <g id="Group-38" transform="translate(0.000000, 173.000000)" fill="#FFFFFF">
                <path d="M34.952,12.174 C34.952,8.148 31.613,4.783 27.331,4.783 C22.948,4.783 19.711,8.275 19.711,12.123 C19.711,15.691 22.591,19.641 27.331,19.641 C32.123,19.641 34.952,15.615 34.952,12.174 M32.302,12.174 C32.302,14.85 30.186,17.22 27.331,17.22 C24.375,17.22 22.362,14.749 22.362,12.2 C22.362,9.676 24.349,7.205 27.331,7.205 C30.313,7.205 32.302,9.676 32.302,12.174" id="Fill-35"></path>
                <path d="M18.376,5.242 C17.892,4.401 17.178,3.126 15.47,1.903 C13.431,0.425 11.138,0.068 9.71,0.068 C4.434,0.068 0,4.273 0,9.779 C0,15.13 4.333,19.641 9.684,19.641 C12.616,19.641 16.159,18.316 18.248,14.621 L14.859,14.621 C13.559,16.15 11.699,17.119 9.71,17.119 C6.015,17.119 2.752,13.856 2.752,9.804 C2.752,5.828 5.836,2.591 9.762,2.591 C12.82,2.591 14.502,4.604 15.063,5.242 L18.376,5.242" id="Fill-37"></path>
            </g>
            <path d="M123.144,177.75 C123.144,176.186 121.992,175.546 121.172,175.546 C120.199,175.546 119.174,176.315 119.174,177.852 C119.174,178.621 119.481,179.337 120.788,180.541 C122.222,179.773 123.144,179.159 123.144,177.75 Z M120.045,183.487 C118.994,183.845 117.355,184.742 117.355,187.022 C117.355,188.611 118.431,190.147 120.378,190.147 C122.658,190.147 123.708,188.047 124.041,187.432 L120.045,183.487 Z M127.217,186.919 L131.034,190.814 L129.19,192.683 L125.886,189.353 C125.271,190.276 123.606,192.683 120.378,192.683 C117.124,192.683 114.589,190.198 114.589,187.022 C114.589,184.819 115.742,182.718 118.226,181.617 C117.253,180.619 116.408,179.619 116.408,177.852 C116.408,175.034 118.559,173.01 121.198,173.01 C123.708,173.01 125.911,174.983 125.911,177.826 C125.911,179.414 125.219,181.182 122.735,182.385 L125.245,184.845 L127.32,180.669 L130.317,180.669 L127.217,186.919 L127.217,186.919 Z" id="Fill-39" fill="#FFFFFF"></path>
        </g>
    </g>
</svg>