<?xml version="1.0" encoding="UTF-8"?>
<svg width="88px" height="51px" viewBox="0 0 88 51" version="1.1" xmlns="http://www.w3.org/2000/svg" xmlns:xlink="http://www.w3.org/1999/xlink">
    <title>Assessors Guild</title>
    <g id="Symbols" stroke="none" stroke-width="1" fill="none" fill-rule="evenodd">
        <g id="Header-/-0.Empty" transform="translate(-153.000000, -67.000000)" fill="#FFFFFF">
            <g id="Header" transform="translate(0.000000, -5.000000)">
                <g id="Logo" transform="translate(130.000000, 5.000000)">
                    <g id="Group-2" transform="translate(23.339080, 67.518692)">
                        <path d="M61.2147156,29.0525199 C61.2147156,32.1171534 59.703127,32.2410365 58.7276537,32.2410365 L58.3080423,32.2410365 L58.3080423,25.8256585 L58.7276537,25.8256585 C59.7228734,25.8256585 61.2147156,26.0360632 61.2147156,29.0525199 M62.1836068,29.051704 C62.1836068,26.3820031 60.308483,25.8256585 58.5231799,25.8256585 L56.37026,25.8256585 L56.37026,25.9621559 C56.7656565,25.9621559 57.0082651,26.4271884 57.0082651,26.9920053 L57.0082651,31.0737484 C57.0082651,31.6950469 56.7563966,32.1045391 56.37026,32.1045391 L56.37026,32.2410365 L58.5231799,32.2410365 C60.308483,32.2410365 62.1836068,31.7675317 62.1836068,29.051704" id="Fill-389"></path>
                        <path d="M55.2756349,30.2632362 C55.0435818,32.1045391 53.099328,32.1045391 52.6158069,32.1045391 L52.2940759,32.1045391 L52.2940759,26.772668 C52.2940759,26.1174805 52.651863,25.9621559 53.0373855,25.9621559 L53.0373855,25.8256585 L50.5569133,25.8256585 L50.5569133,25.9621559 C50.9424358,25.9621559 51.1929792,26.1993789 51.1929792,26.7547822 L51.1929792,31.1104615 C51.1929792,31.73176 51.0145479,32.1045391 50.6290254,32.1045391 L50.6290254,32.2410365 L55.4013689,32.2410365 L55.4013689,30.2632362 L55.2756349,30.2632362 Z" id="Fill-391"></path>
                        <path d="M46.6813488,25.8256585 L46.6813488,25.9621759 C47.1405236,25.9621759 47.4953894,26.1627153 47.4953894,26.727615 L47.4953894,31.2025625 C47.4953894,31.8230107 47.1297701,32.1054606 46.6813488,32.1054606 L46.6813488,32.2410365 L49.5880222,32.2410365 L49.5880222,32.1054606 C49.1514297,32.1054606 48.7750569,31.8230107 48.7750569,31.2025625 L48.7750569,26.727615 C48.7750569,26.1627153 49.1406762,25.9621759 49.5880222,25.9621759 L49.5880222,25.8256585 L46.6813488,25.8256585 Z" id="Fill-393"></path>
                        <path d="M42.9561764,32.2410365 C43.9838792,32.2410365 45.3431314,31.7911607 45.3331148,30.0176832 L45.3331148,27.4625001 C45.3331148,27.0312141 45.3140833,25.9502109 46.6813488,25.9595058 L46.6813488,25.8256585 L43.9548311,25.8256585 L43.9548311,25.9595058 C45.1868725,25.9502109 45.1868725,27.0312141 45.1868725,27.4625001 L45.1868725,30.0176832 C45.1868725,31.1609627 44.3825398,31.7725708 43.5191091,31.7725708 C42.5284677,31.7725708 41.8102777,31.1340074 41.8102777,30.0455681 L41.8102777,26.7523655 C41.8102777,26.0775517 42.2379864,25.9595058 42.6546768,25.9595058 L42.6546768,25.8256585 L39.899111,25.8256585 L39.899111,25.9595058 C40.325818,25.9595058 40.6273176,26.1677128 40.6273176,26.7430705 L40.6273176,29.9730675 C40.6273176,31.4407409 41.6750536,32.2410365 42.9561764,32.2410365" id="Fill-395"></path>
                        <path d="M37.6386654,29.6726823 L37.6386654,29.8066993 C38.1794419,29.8066993 38.3633059,29.8415805 38.3633059,31.1119887 C38.3633059,31.9206807 38.0830034,32.1070195 37.0618372,32.1070195 C36.0839332,32.1070195 35.4467183,31.476405 35.4467183,29.0328885 C35.4467183,26.5893721 36.0677099,25.9578397 37.0618372,25.9578397 C38.0929177,25.9578397 38.7733947,26.358055 38.9653703,27.7891001 L39.209621,27.7891001 L39.270909,26.3139946 C38.7301326,25.9486604 38.0397413,25.8256585 37.0618372,25.8256585 C35.1772313,25.8256585 34.0857642,27.264047 34.0857642,29.0328885 C34.0857642,30.8008122 35.1772313,32.2410365 37.0618372,32.2410365 C37.9964792,32.2410365 38.7643817,32.0803997 39.3060595,31.867441 C39.3060595,29.9297013 39.3925837,29.8066993 39.899111,29.8066993 L39.899111,29.6726823 L37.6386654,29.6726823 Z" id="Fill-397"></path>
                        <path d="M57.0479251,24.0776129 C57.6670775,23.102197 57.2898097,21.9959214 56.0036696,21.1021768 L54.4557886,20.0358087 C53.1019568,19.1105094 53.6922275,17.7295209 54.7355805,17.7295209 C56.3132458,17.7295209 56.7961124,18.9991393 56.9314956,19.7713049 L57.0759043,19.7713049 L57.0759043,18.0645591 C57.0759043,18.0645591 56.2645078,17.5773152 54.7355805,17.5773152 C53.296006,17.5773152 52.8212624,18.3596897 52.8212624,18.3596897 C52.0486757,19.51701 52.7436427,20.482217 53.8953022,21.2534545 L55.4323526,22.2891958 C56.5930377,23.1634506 56.3321994,24.7578982 55.0839665,24.7578982 C53.4016049,24.7578982 52.9088102,23.2850295 52.7535708,22.3597301 L52.6091621,22.3597301 L52.6091621,24.31149 C52.6091621,24.31149 53.3627951,24.9091759 55.0839665,24.9091759 C56.6128939,24.9091759 57.0479251,24.0776129 57.0479251,24.0776129" id="Fill-399"></path>
                        <path d="M49.5880222,19.4102848 C49.5880222,21.2432455 48.8622827,21.2432455 47.9243531,21.2432455 L47.6502399,21.2432455 L47.6502399,17.5773152 L47.9243531,17.5773152 C48.8267801,17.5773152 49.5880222,17.5573386 49.5880222,19.4102848 L49.5880222,19.4102848 Z M52.4946955,24.7540294 C52.2254519,24.7330894 51.5325596,24.5779429 51.326043,23.7860296 C50.8087864,21.7015463 50.0435168,21.4416998 49.3622049,21.4626398 C50.5298924,21.3588915 51.3366583,20.9105848 51.3366583,19.5666166 C51.3366583,17.8266917 50.0329015,17.5773152 47.9754554,17.5773152 L45.7124577,17.5773152 L45.7124577,17.7334135 C46.1660223,17.7334135 46.4043849,17.9523318 46.4043849,18.597665 L46.4043849,23.6708595 C46.4043849,24.4627728 46.1563719,24.7540294 45.7124577,24.7540294 L45.7124577,24.9091759 L48.3788383,24.9091759 L48.3788383,24.7540294 C47.9445744,24.7540294 47.6550651,24.451351 47.6550651,23.7327278 L47.6550651,21.5568699 L48.1414407,21.5568699 C48.27558,21.5568699 49.2792123,21.5568699 49.5889872,22.6400397 C50.2509985,24.9006095 50.0329015,24.9006095 51.6261676,24.9091759 L52.4946955,24.9091759 L52.4946955,24.7540294 Z" id="Fill-401"></path>
                        <path d="M42.8057843,21.2960102 C42.8057843,24.2101658 42.0757427,24.9091759 40.8779443,24.9091759 C39.6706771,24.9091759 38.9302198,24.2101658 38.9302198,21.2960102 C38.9302198,18.3934724 39.6706771,17.5773152 40.8779443,17.5773152 C42.0757427,17.5773152 42.8057843,18.3934724 42.8057843,21.2960102 M44.7435666,21.2938197 C44.7435666,19.282917 43.5779285,17.5773152 41.351503,17.5773152 C39.1250776,17.5773152 37.9613287,19.282917 37.9613287,21.2938197 C37.9613287,23.31493 39.1250776,24.9091759 41.351503,24.9091759 C43.5779285,24.9091759 44.7435666,23.31493 44.7435666,21.2938197" id="Fill-403"></path>
                        <path d="M36.7012017,24.0776129 C37.3203751,23.102197 36.9430945,21.9959214 35.6569108,21.1021768 L34.1089774,20.0358087 C32.7560024,19.1105094 33.3453904,17.7295209 34.3896813,17.7295209 C35.9664975,17.7295209 36.4493805,18.9991393 36.5847682,19.7713049 L36.7300844,19.7713049 L36.7300844,18.0645591 C36.7300844,18.0645591 35.9186605,17.5773152 34.3896813,17.5773152 C32.9491556,17.5773152 32.4743958,18.3596897 32.4743958,18.3596897 C31.701783,19.51701 32.3976761,20.482217 33.5484721,21.2534545 L35.086477,22.2891958 C36.2462988,23.1634506 35.9854517,24.7578982 34.7380792,24.7578982 C33.0556606,24.7578982 32.5619466,23.2850295 32.4076045,22.3597301 L32.2622883,22.3597301 L32.2622883,24.31149 C32.2622883,24.31149 33.0168495,24.9091759 34.7380792,24.9091759 C36.2670583,24.9091759 36.7012017,24.0776129 36.7012017,24.0776129" id="Fill-405"></path>
                        <path d="M30.887855,24.0776129 C31.5070283,23.102197 31.1297478,21.9959214 29.8435641,21.1021768 L28.2956307,20.0358087 C26.9426556,19.1105094 27.5320437,17.7295209 28.5763346,17.7295209 C30.1531507,17.7295209 30.6360337,18.9991393 30.7714215,19.7713049 L30.9167377,19.7713049 L30.9167377,18.0645591 C30.9167377,18.0645591 30.1044111,17.5773152 28.5763346,17.5773152 C27.1358088,17.5773152 26.6610491,18.3596897 26.6610491,18.3596897 C25.8884363,19.51701 26.5843294,20.482217 27.7351253,21.2534545 L29.2731303,22.2891958 C30.4329521,23.1634506 30.172105,24.7578982 28.9247325,24.7578982 C27.2423139,24.7578982 26.7485998,23.2850295 26.5942578,22.3597301 L26.4489416,22.3597301 L26.4489416,24.31149 C26.4489416,24.31149 27.2035027,24.9091759 28.9247325,24.9091759 C30.452809,24.9091759 30.887855,24.0776129 30.887855,24.0776129" id="Fill-407"></path>
                        <path d="M25.2028768,22.6914379 C24.8537299,24.7740176 22.443293,24.7540294 21.9628343,24.7540294 L21.515967,24.7540294 L21.515967,21.2846497 L22.0615726,21.2846497 C22.2030636,21.2846497 23.6210276,21.2846497 23.7075509,22.3573495 L23.8714361,22.3573495 L23.8714361,20.0663215 L23.7075509,20.0663215 C23.6210276,21.1285514 22.2132429,21.1285514 22.0615726,21.1285514 L21.515967,21.1285514 L21.515967,17.7334135 L22.0066049,17.7334135 C22.4544901,17.7334135 24.8751062,17.7438835 25.0603678,19.5037966 L25.2242531,19.5037966 L25.2242531,17.5773152 L19.5523974,17.5773152 L19.5523974,17.7334135 C20.0328561,17.7334135 20.1641679,18.2017084 20.1641679,18.8479934 L20.1641679,23.5861477 C20.1641679,24.2962045 20.0104618,24.7540294 19.5523974,24.7540294 L19.5523974,24.9091759 L25.3657441,24.9091759 L25.3657441,22.6914379 L25.2028768,22.6914379 Z" id="Fill-409"></path>
                        <path d="M18.2920781,24.0776129 C18.9112687,23.102197 18.5348803,21.9959214 17.247758,21.1021768 L15.700684,20.0358087 C14.3467687,19.1105094 14.9361732,17.7295209 15.9804932,17.7295209 C17.5573534,17.7295209 18.0411525,18.9991393 18.176544,19.7713049 L18.3209616,19.7713049 L18.3209616,18.0645591 C18.3209616,18.0645591 17.5086124,17.5773152 15.9804932,17.5773152 C14.5399272,17.5773152 14.0660569,18.3596897 14.0660569,18.3596897 C13.2925199,19.51701 13.9884324,20.482217 15.1392605,21.2534545 L16.6773084,22.2891958 C17.8380651,23.1634506 17.5772108,24.7578982 16.3289008,24.7578982 C14.6473379,24.7578982 14.1536101,23.2850295 13.9983611,22.3597301 L13.8539435,22.3597301 L13.8539435,24.31149 C13.8539435,24.31149 14.607623,24.9091759 16.3289008,24.9091759 C17.85702,24.9091759 18.2920781,24.0776129 18.2920781,24.0776129" id="Fill-411"></path>
                        <path d="M11.5100325,24.0776129 C12.1292059,23.102197 11.7519253,21.9959214 10.4657416,21.1021768 L8.91780823,20.0358087 C7.56393062,19.1105094 8.15422126,17.7295209 9.19851218,17.7295209 C10.7753283,17.7295209 11.2582113,18.9991393 11.3935991,19.7713049 L11.5389153,19.7713049 L11.5389153,18.0645591 C11.5389153,18.0645591 10.7265887,17.5773152 9.19851218,17.5773152 C7.75798641,17.5773152 7.28322667,18.3596897 7.28322667,18.3596897 C6.51061385,19.51701 7.20650693,20.482217 8.3573029,21.2534545 L9.89530786,22.2891958 C11.0551297,23.1634506 10.7942826,24.7578982 9.54691002,24.7578982 C7.86449145,24.7578982 7.37077742,23.2850295 7.21553278,22.3597301 L7.07111917,22.3597301 L7.07111917,24.31149 C7.07111917,24.31149 7.82477771,24.9091759 9.54691002,24.9091759 C11.0749865,24.9091759 11.5100325,24.0776129 11.5100325,24.0776129" id="Fill-413"></path>
                        <path d="M2.11235722,23.0762107 L3.51010179,19.4102804 L5.01903058,23.0762107 L2.11235722,23.0762107 Z M6.95681283,24.7540294 C6.68161359,24.7330894 6.44721975,24.7844876 6.11223585,23.9516461 C6.11223585,23.9516461 5.42993152,22.1698412 3.55952564,17.5773152 L3.4276198,17.5773152 L1.69006873,22.3268913 C0.753442346,24.7540294 0.500069252,24.7426076 0.174574977,24.7540294 L0.174574977,24.9091759 L2.56406356,24.9091759 L2.56406356,24.7540294 C1.04951877,24.8168494 1.58758074,23.1920947 1.73087413,22.775198 L4.2513196,22.775198 L4.57681387,23.6080395 C4.69828112,23.8992961 5.01428577,24.7540294 4.343369,24.7540294 L4.343369,24.9091759 L6.95681283,24.9091759 L6.95681283,24.7540294 Z" id="Fill-415"></path>
                        <path d="M53.3275328,14.7197454 C53.0357207,16.5431624 51.0277535,16.5243352 50.6280366,16.5243352 L50.2555305,16.5243352 L50.2555305,13.489386 L50.7087306,13.489386 C50.827895,13.489386 52.0092178,13.489386 52.0814671,14.426982 L52.217521,14.426982 L52.217521,12.4237649 L52.0814671,12.4237649 C52.0092178,13.3528886 50.8363398,13.3528886 50.7087306,13.3528886 L50.2555305,13.3528886 L50.2555305,10.3828933 L50.6636921,10.3828933 C51.0371365,10.3828933 53.0544868,10.3913656 53.2083684,11.9314328 L53.3453606,11.9314328 L53.3453606,10.2454545 L48.6191311,10.2454545 L48.6191311,10.3828933 C49.0188479,10.3828933 49.127691,10.7923855 49.127691,11.3572024 L49.127691,15.5038994 C49.127691,16.1233153 49.0010202,16.5243352 48.6191311,16.5243352 L48.6191311,16.6608326 L53.4635867,16.6608326 L53.4635867,14.7197454 L53.3275328,14.7197454 Z" id="Fill-417"></path>
                        <path d="M48.1570289,11.52966 C48.1570289,10.7369173 48.1570289,10.4638824 48.6191311,10.381972 L48.6191311,10.2454545 L46.7311137,10.2454545 L46.7311137,10.381972 C47.0063437,10.4638824 46.9870472,10.7369173 46.9870472,11.52966 L46.9870472,13.4992771 L44.4490399,13.4992771 L44.4490399,11.52966 C44.4490399,10.7369173 44.4287277,10.4638824 44.7049734,10.381972 L44.7049734,10.2454545 L42.8057843,10.2454545 L42.8057843,10.381972 C43.2780426,10.4638824 43.2780426,10.7651623 43.2780426,11.52966 L43.2780426,15.4218192 C43.2780426,16.2324503 43.3267918,16.3972127 42.8057843,16.5252567 L42.8057843,16.6608326 L44.7049734,16.6608326 L44.7049734,16.5252567 C44.4287277,16.4339312 44.4490399,16.2597538 44.4490399,15.4218192 L44.4490399,13.6715715 L46.9870472,13.6715715 L46.9870472,15.4218192 C46.9870472,16.2060883 46.995172,16.4339312 46.7311137,16.5252567 L46.7311137,16.6608326 L48.6191311,16.6608326 L48.6191311,16.5252567 C48.107264,16.3972127 48.1570289,16.1693698 48.1570289,15.4218192 L48.1570289,11.52966 Z" id="Fill-419"></path>
                        <path d="M36.0235465,10.2454545 L36.0235465,11.9683988 L36.1615319,11.9683988 C36.2163481,10.4092755 37.8731188,10.3829135 38.0101592,10.3829135 L38.3674092,10.3829135 L38.3674092,15.6684921 C38.3674092,16.2785838 38.0290613,16.5252567 37.6434581,16.5252567 L37.6434581,16.6608326 L40.2065854,16.6608326 L40.2065854,16.5252567 C39.8228724,16.5252567 39.4835794,16.2785838 39.4835794,15.6684921 L39.4835794,10.3829135 L39.8408294,10.3829135 C39.9041515,10.3829135 41.6440916,10.4092755 41.6998528,11.9683988 L41.8368932,11.9683988 L41.8368932,10.2454545 L36.0235465,10.2454545 Z" id="Fill-421"></path>
                        <path d="M86.4058848,49.6542056 L67.9528902,49.6542056 L67.9528902,47.7864477 C69.4183288,47.7864477 70.008348,47.5009423 70.3754283,46.9400623 C71.3325279,45.4738539 70.2764512,42.4382867 69.5615093,40.7593308 L67.4685748,35.4848487 L51.0306784,35.4848487 C48.9992442,41.493356 49.7852958,44.412879 50.8077395,45.8063295 C51.851324,47.2274097 53.5839048,47.768028 56.7742366,47.768028 L56.7742366,49.6542056 L39.899111,49.6542056 L39.899111,47.7956575 C42.3917979,47.7956575 43.9542918,47.4079228 49.4297468,33.6170907 L66.7949535,33.6170907 L57.8399227,11.0916353 L61.9056739,0.164146134 L63.4258863,0.164146134 C63.4258863,0.164146134 78.755815,38.0654491 80.6825064,42.7237922 C82.6091977,47.3821352 83.9333776,47.8159192 86.4058848,47.8159192 L86.4058848,49.6542056 Z" id="Fill-423"></path>
                    </g>
                </g>
            </g>
        </g>
    </g>
</svg>