<svg xmlns="http://www.w3.org/2000/svg" width="22" height="22" viewBox="0 0 22 22">
  <g fill="none" fill-rule="evenodd" stroke="#FFF" stroke-linecap="round" stroke-linejoin="round" transform="translate(1 1)">
    <path d="M10,20 C15.5228,20 20,15.5228 20,10 C20,4.47715 15.5228,0 10,0 C4.47715,0 0,4.47715 0,10 C0,15.5228 4.47715,20 10,20 Z"/>
    <path d="M7.5 5C8.0523 5 8.5 4.55228 8.5 4 8.5 3.44772 8.0523 3 7.5 3 6.94772 3 6.5 3.44772 6.5 4 6.5 4.55228 6.94772 5 7.5 5zM15.5 10C16.0523 10 16.5 9.5523 16.5 9 16.5 8.4477 16.0523 8 15.5 8 14.9477 8 14.5 8.4477 14.5 9 14.5 9.5523 14.9477 10 15.5 10zM12 5C12 5.94604 12 8 12 8L.21094 8"/>
    <polyline points="15.5 10 15.5 12 19.796 12"/>
    <line x1="6.5" x2="2.029" y1="4" y2="3.989"/>
    <path d="M4 13C4.55228 13 5 12.5523 5 12 5 11.4477 4.55228 11 4 11 3.44772 11 3 11.4477 3 12 3 12.5523 3.44772 13 4 13zM9.0229 17.0105C9.5752 17.0105 10.0229 16.5628 10.0229 16.0105 10.0229 15.4582 9.5752 15.0105 9.0229 15.0105 8.4707 15.0105 8.0229 15.4582 8.0229 16.0105 8.0229 16.5628 8.4707 17.0105 9.0229 17.0105z"/>
    <line x1="2.028" x2="8.028" y1="16.046" y2="16.046"/>
    <polyline points="5 12 12.5 12 13.5 15 18.651 15"/>
    <path d="M12,5.00001 C12.5523,5.00001 13,4.55229 13,4.00001 C13,3.44773 12.5523,3.00001 12,3.00001 C11.4477,3.00001 11,3.44773 11,4.00001 C11,4.55229 11.4477,5.00001 12,5.00001 Z"/>
  </g>
</svg>
