<svg xmlns="http://www.w3.org/2000/svg" width="44" height="44" viewBox="0 0 44 44">
  <g fill="none" fill-rule="evenodd">
    <rect width="44" height="44" fill="none"/>
    <circle cx="22" cy="22" r="21.12" fill="#EA4C89" fill-rule="nonzero"/>
    <path fill="#C32361" d="M22,0 C9.85468,0 0,9.85468 0,22 C0,34.14532 9.85468,44 22,44 C34.121472,44 44,34.14532 44,22 C44,9.85468 34.121472,0 22,0 Z M36.53144,10.140988 C39.156172,13.33838 40.73102,17.418676 40.77876,21.832976 C40.15836,21.713648 33.954448,20.449044 27.70284,21.236424 C27.559664,20.926268 27.440336,20.592176 27.297204,20.258128 C26.915416,19.35142 26.485888,18.42082 26.056404,17.53796 C32.976152,14.722356 36.125804,10.665952 36.53144,10.140988 Z M22,3.2451188 C26.77224,3.2451188 31.138844,5.0347 34.45552,7.969632 C34.121472,8.446856 31.281976,12.2408 24.600884,14.746204 C21.522776,9.091104 18.11062,4.46204 17.5857,3.746204 C18.99348,3.4121472 20.472892,3.2451188 22,3.2451188 Z M14.00652,5.010852 C14.507592,5.678948 17.84816,10.331904 20.973964,15.867676 C12.19306,18.206056 4.438192,18.1584333 3.6030368,18.1584333 C4.819936,12.336236 8.757056,7.492408 14.00652,5.010852 Z M3.1973964,22.023848 C3.1973964,21.832976 3.1973964,21.642104 3.1973964,21.451188 C4.0086772,21.475036 13.12366,21.594364 22.501072,18.77876 C23.049884,19.828644 23.550956,20.902376 24.02818,21.976152 C23.789568,22.04774 23.527108,22.119328 23.288496,22.190872 C13.600884,25.31672 8.446856,33.859012 8.017372,34.574848 C5.0347,31.258128 3.1973964,26.843828 3.1973964,22.023848 Z M22,40.802608 C17.657288,40.802608 13.64858,39.323196 10.475036,36.84164 C10.809128,36.149696 14.62692,28.80042 25.22124,25.101956 C25.26898,25.078108 25.292828,25.078108 25.340568,25.054216 C27.989148,31.902376 29.062924,37.652912 29.349232,39.299348 C27.08244,40.277644 24.600884,40.802608 22,40.802608 Z M32.47508,37.581368 C32.284164,36.436004 31.28202,30.947928 28.824312,24.195248 C34.718024,23.264648 39.872008,24.791756 40.516256,25.00652 C39.704984,30.232092 36.698464,34.741872 32.47508,37.581368 Z"/>
  </g>
</svg>
