<svg xmlns="http://www.w3.org/2000/svg" width="55" height="54" viewBox="0 0 55 54">
  <g fill="#1493FF" fill-rule="evenodd">
    <path
      d="M27.2821853,53.9615361 C43.4474021,44.5835858 54.4210526,27.1025085 54.4210526,7.35049108 C54.4210526,7.19049303 54.3357534,7.04081743 54.1957584,6.96146356 C47.5026976,3.15440027 39.6545157,0.647334042 31.4143479,0.00153649741 C31.2554699,-0.0113665776 31.0998476,0.0576648393 31.0028278,0.183470016 C28.8573239,2.9711767 27.0041489,5.99178505 25.4882966,9.20014596 C25.4375077,9.30788658 25.5195513,9.43111089 25.6393609,9.42723997 C26.1023209,9.41304659 26.5672344,9.40594991 27.0334501,9.40594991 C33.1834933,9.40594991 39.0443981,10.625935 44.3863449,12.8330049 C42.8190526,24.9451154 36.3590997,35.539825 27.0334501,42.6107066 C25.1295188,41.1668532 23.3460483,39.57655 21.6980173,37.8559258 C21.5899282,37.743024 21.3984931,37.8352809 21.4232365,37.9888275 C22.3322244,43.65521 24.2127147,49.0015965 26.8888972,53.8537954 C26.9657316,53.9925034 27.144795,54.0415351 27.2821853,53.9615361 Z" />
    <path
      d="M18.0445568,32.7271513 C16.9757873,31.2215006 15.9984804,29.6462502 15.1215905,28.0090626 C16.0074347,27.5889107 16.9195026,27.2134558 17.8526772,26.8846135 C18.02345,26.8245918 18.1411362,26.6707064 18.1532886,26.4900027 C18.3758689,23.1581598 18.9118527,19.9112413 19.7330975,16.7792579 C19.7618794,16.670708 19.6653,16.5685434 19.5546494,16.5915304 C16.7691969,17.1693989 14.0956741,18.0518456 11.5705382,19.2018358 C10.9904221,17.1470504 10.5554949,15.0316047 10.2772695,12.8669924 C13.9229824,11.3492096 17.8149408,10.3032995 21.8770325,9.80652417 C22.0241403,9.78864536 22.1501412,9.69350458 22.2083447,9.55749796 C23.6212183,6.25438886 25.2950483,3.29991645 27.3954906,0.228595828 C27.4613693,0.13217799 27.3922926,-0.000636234876 27.275246,0 C17.3115766,0.0466148851 8.52540848,2.59689632 0.657704172,7.04680301 C0.510596458,7.13045028 0.421052632,7.28816687 0.421052632,7.45673846 C0.421052632,24.3004877 8.83113669,40.2081539 21.6864321,49.9680655 C21.8117935,50.0625677 21.9812871,49.9310308 21.9218044,49.7860848 C19.7669962,44.5424869 18.444306,38.8697977 18.1161918,32.9333961 C18.1123543,32.8593268 18.0874099,32.7878116 18.0445568,32.7271513 Z" />
  </g>
</svg>