<svg xmlns="http://www.w3.org/2000/svg" width="44" height="43" viewBox="0 0 44 43">
  <g fill="#161514" fill-rule="evenodd">
    <path d="M21.9592727,0 C9.83309091,0 4.54747351e-13,9.83090909 4.54747351e-13,21.9589091 C4.54747351e-13,31.6610909 6.292,39.8923636 15.0170909,42.796 C16.1145455,42.9992727 16.5174545,42.3196364 16.5174545,41.7396364 C16.5174545,41.216 16.4970909,39.4861818 16.4876364,37.6512727 C10.3785455,38.9796364 9.08945455,35.0603636 9.08945455,35.0603636 C8.09054545,32.5221818 6.65127273,31.8472727 6.65127273,31.8472727 C4.65890909,30.4843636 6.80145455,30.5123636 6.80145455,30.5123636 C9.00654545,30.6669091 10.1676364,32.7752727 10.1676364,32.7752727 C12.1261818,36.1323636 15.3047273,35.1618182 16.5578182,34.6007273 C16.7549091,33.1818182 17.324,32.2123636 17.952,31.6643636 C13.0745455,31.1090909 7.94727273,29.2261818 7.94727273,20.812 C7.94727273,18.4145455 8.80509091,16.4556364 10.2098182,14.9178182 C9.98181818,14.3643636 9.23018182,12.1312727 10.4225455,9.10654545 C10.4225455,9.10654545 12.2665455,8.51636364 16.4629091,11.3574545 C18.2145455,10.8709091 20.0930909,10.6269091 21.9592727,10.6185455 C23.8254545,10.6269091 25.7054545,10.8709091 27.4603636,11.3574545 C31.6516364,8.51636364 33.4930909,9.10654545 33.4930909,9.10654545 C34.6883636,12.1312727 33.9363636,14.3643636 33.7083636,14.9178182 C35.1163636,16.4556364 35.9683636,18.4145455 35.9683636,20.812 C35.9683636,29.2461818 30.8312727,31.1032727 25.9414545,31.6469091 C26.7290909,32.3283636 27.4309091,33.6647273 27.4309091,35.7134545 C27.4309091,38.6512727 27.4054545,41.016 27.4054545,41.7396364 C27.4054545,42.324 27.8007273,43.0087273 28.9138182,42.7930909 C37.6341818,39.8861818 43.9181818,31.6578182 43.9181818,21.9589091 C43.9181818,9.83090909 34.0865455,0 21.9592727,0"/>
    <path d="M8.31709091 31.5283636C8.26872727 31.6378182 8.09709091 31.6701818 7.94072727 31.5952727 7.78145455 31.5236364 7.692 31.3749091 7.74363636 31.2654545 7.79090909 31.1530909 7.96290909 31.1221818 8.12181818 31.1967273 8.28145455 31.2687273 8.37236364 31.4189091 8.31709091 31.5283636M9.20654545 32.5203636C9.10181818 32.6174545 8.89709091 32.5723636 8.75818182 32.4189091 8.61454545 32.2658182 8.58763636 32.0610909 8.69381818 31.9625455 8.80181818 31.8654545 9.00036364 31.9109091 9.14436364 32.064 9.288 32.2189091 9.316 32.4221818 9.20654545 32.5203636M10.0723636 33.7850909C9.93781818 33.8785455 9.71781818 33.7909091 9.58181818 33.5956364 9.44727273 33.4003636 9.44727273 33.1661818 9.58472727 33.0723636 9.72109091 32.9785455 9.93781818 33.0629091 10.0756364 33.2567273 10.2098182 33.4549091 10.2098182 33.6894545 10.0723636 33.7850909M11.2585455 35.0069091C11.1381818 35.1396364 10.8818182 35.104 10.6941818 34.9229091 10.5021818 34.7458182 10.4487273 34.4945455 10.5694545 34.3618182 10.6912727 34.2287273 10.9490909 34.2661818 11.1381818 34.4458182 11.3287273 34.6225455 11.3869091 34.8756364 11.2585455 35.0069091M12.8949091 35.7163636C12.8418182 35.8883636 12.5949091 35.9665455 12.3461818 35.8934545 12.0978182 35.8181818 11.9352727 35.6167273 11.9854545 35.4429091 12.0370909 35.2698182 12.2850909 35.1883636 12.5356364 35.2665455 12.7836364 35.3414545 12.9465455 35.5414545 12.8949091 35.7163636M14.692 35.848C14.6981818 36.0290909 14.4872727 36.1792727 14.2261818 36.1821818 13.9636364 36.1883636 13.7512727 36.0418182 13.7483636 35.8636364 13.7483636 35.6807273 13.9545455 35.532 14.2170909 35.5276364 14.4781818 35.5225455 14.692 35.668 14.692 35.848M16.3643636 35.5632727C16.3956364 35.74 16.2141818 35.9214545 15.9549091 35.9694545 15.7 36.0163636 15.464 35.9072727 15.4316364 35.732 15.4 35.5509091 15.5847273 35.3694545 15.8392727 35.3225455 16.0989091 35.2774545 16.3312727 35.3836364 16.3643636 35.5632727"/>
  </g>
</svg>
