<?xml version="1.0" encoding="UTF-8"?>
<svg width="83px" height="19px" viewBox="0 0 83 19" version="1.1" xmlns="http://www.w3.org/2000/svg" xmlns:xlink="http://www.w3.org/1999/xlink">
    <title>lifeQuay</title>
    <g id="Symbols" stroke="none" stroke-width="1" fill="none" fill-rule="evenodd">
        <g id="sidebar" transform="translate(-67.000000, -24.000000)" fill="#FFFFFF" fill-rule="nonzero">
            <g id="lifeQuay">
                <path d="M93.0499674,28.7382329 C90.0096461,28.7382329 88.3131417,30.9635288 88.3131417,33.6908891 C88.3131417,36.4182494 89.9710307,38.6435453 93.2481933,38.6435453 C94.3731894,38.6435453 96.1108837,38.3820534 96.9990385,37.8015414 L96.9990385,35.3748968 C95.9656804,35.9803202 94.7963126,36.3054091 93.6034552,36.3188825 C92.043392,36.3188825 91.2144474,35.4350399 91.1346422,34.271401 L97.372321,34.271401 L97.372321,33.3091109 C97.372321,29.9829342 95.3128315,28.7382329 93.0499674,28.7382329 L93.0499674,28.7382329 Z M91.1346422,32.5873933 C91.1694572,31.5619078 92.0011903,30.7506794 93.011352,30.7569502 C93.4936544,30.7337217 93.9629078,30.9200259 94.3018652,31.2693131 C94.6408226,31.6186003 94.8174668,32.0978776 94.7876617,32.5873933 L91.1346422,32.5873933 Z M79.7482419,26.0500963 C79.7482419,26.9512645 79.0290292,27.6818057 78.141838,27.6818057 C77.2546468,27.6818057 76.5354362,26.9512645 76.5354362,26.0500963 C76.5354362,25.1489282 77.2546468,24.4183849 78.141838,24.4183849 C78.5680918,24.4176915 78.9770844,24.5893799 79.2784917,24.8955356 C79.579899,25.2016914 79.7489246,25.6171273 79.7482419,26.0500963 L79.7482419,26.0500963 Z M150,30.8144784 L149.624143,30.8144784 L149.528892,29.4024222 L149.060358,30.7830994 L148.620142,30.7830994 L148.156757,29.4024222 L148.066654,30.8144784 L147.690797,30.8144784 L147.865854,28.9840352 L148.336962,28.9840352 L148.851835,30.4771539 L149.366707,28.9840352 L149.837815,28.9840352 L150,30.8144784 Z M85.5379796,29.0284889 L87.4533048,29.0284889 L87.4533048,31.3139279 L85.5379796,31.3139279 L85.5379796,38.3742086 L82.7756893,38.3742086 L82.7756893,31.3139279 L81.2156261,31.3139279 L81.2156261,29.0206441 L82.7756893,29.0206441 L82.7756893,27.6844206 C82.7756893,25.7781448 84.039701,24.4968346 86.2485035,24.4968346 C87.2550789,24.4968346 88.4212648,24.7583265 88.8357371,25.0198183 L88.8357371,27.5850537 C88.192206,27.1988529 87.468103,26.9721974 86.722186,26.9234792 C85.8932415,26.9234792 85.5379796,27.3863198 85.5379796,28.0661987 L85.5379796,29.0284889 Z M69.8343724,35.8455822 L75.0474551,35.8455822 L75.0474551,38.3715937 L67,38.3715937 L67,24.9178365 L69.831798,24.9178365 L69.8343724,35.8455822 Z M76.7516826,29.0284889 L79.5165473,29.0284889 L79.5165473,38.3715937 L76.7594057,38.3715937 L76.7516826,29.0284889 Z M121.118235,29.0284889 L123.862504,29.0284889 L123.862504,38.460501 C123.862504,38.460501 122.559877,38.0055051 121.545579,38.1728599 C120.53128,38.3402147 119.985515,38.6409304 118.682888,38.6409304 C116.057039,38.6409304 114.932043,37.1164327 114.932043,35.0924855 L114.932043,29.0206441 L117.694333,29.0206441 L117.694333,34.6531792 C117.694333,35.7174511 118.188611,36.2979631 119.274991,36.2979631 C119.930298,36.2764762 120.568924,36.082771 121.128532,35.7357556 L121.118235,29.0284889 Z M145.721411,28.9735756 L147.39732,28.9735756 L147.39732,29.3082852 L146.740858,29.3082852 L146.740858,30.8144784 L146.377873,30.8144784 L146.377873,29.3082852 L145.721411,29.3082852 L145.721411,28.9735756 Z M141.44797,29.0284889 L144.21026,29.0284889 L144.21026,37.8878337 C144.21026,40.5341316 143.144474,43 139.215998,43 C138.150212,43 136.404795,42.6940545 135.354456,42.0272502 L135.354456,39.3835673 C136.685401,40.0399119 137.823269,40.4295348 138.958562,40.4295348 C140.794082,40.4295348 141.40678,39.2083677 141.40678,38.4709606 L141.40678,37.9715111 C140.655852,38.425855 139.793728,38.6552066 138.919947,38.6330856 C136.345585,38.6330856 135.266927,37.1085879 135.266927,35.0846408 L135.266927,29.0206441 L138.011197,29.0206441 L138.011197,34.6740985 C138.011197,35.5762455 138.425669,36.3790256 139.609876,36.3790256 C140.269132,36.3750093 140.908413,36.1487475 141.427375,35.7357556 L141.44797,29.0284889 Z M129.845321,28.7460776 C128.69973,28.7460776 127.013523,28.9866502 125.89625,29.5305533 L125.89625,31.9571979 C127.015151,31.4385205 128.220549,31.1395213 129.448869,31.0759703 C130.496635,31.0759703 131.050123,31.5152766 131.050123,32.3389761 L131.050123,32.7390586 L129.016377,32.7390586 C126.251512,32.7390586 125.244937,33.9628406 125.244937,35.6860721 C125.244937,37.9532067 126.962036,38.654005 128.64052,38.654005 C129.726901,38.654005 130.378214,38.3219103 131.346174,38.1467107 C132.314134,37.9715111 133.714587,38.5337187 133.714587,38.5337187 L133.714587,32.597853 C133.714587,30.4143958 132.865048,28.7486925 129.853044,28.7486925 L129.845321,28.7460776 Z M131.075866,36.0469309 C130.545108,36.485795 129.885904,36.7332121 129.201731,36.7503441 C128.470612,36.7503441 127.899104,36.4077897 127.899104,35.6468483 C127.899104,34.885907 128.450017,34.5250482 129.121925,34.5250482 L131.075866,34.5250482 L131.075866,36.0469309 Z M113.33079,31.2956235 C113.33079,27.3732453 110.411464,24 105.950095,24 C101.488726,24 98.5616761,27.3340215 98.5616761,31.3453069 C98.5616761,35.3565923 101.501597,38.6435453 105.826525,38.6435453 C106.300208,38.6435453 106.575665,38.6043215 106.871716,38.5834021 C107.80463,39.4204438 108.890018,40.0636349 110.066499,40.4766034 C111.273846,40.9196596 112.525731,41.2257224 113.799324,41.38921 L113.799324,38.5441784 C113.799324,38.5441784 111.389721,38.3428296 110.305915,37.2602532 C111.981824,36.1776769 113.325641,33.7719516 113.325641,31.2851638 L113.33079,31.2956235 Z M105.950095,36.0233974 C104.091261,36.0244544 102.414882,34.8878937 101.702815,33.1438039 C100.990749,31.3997141 101.383262,29.3916544 102.697287,28.0561794 C104.011313,26.7207043 105.988008,26.3208821 107.705446,27.0431891 C109.422884,27.7654961 110.542756,29.4676486 110.542756,31.3557666 C110.542756,33.9326066 108.486968,36.021953 105.950095,36.0233974 L105.950095,36.0233974 Z"></path>
            </g>
        </g>
    </g>
</svg>