<svg xmlns="http://www.w3.org/2000/svg" width="16" height="22" viewBox="0 0 16 22">
  <g fill="none" fill-rule="evenodd" stroke="#FFF" transform="translate(1 1)">
    <path stroke-linejoin="round" d="M7.0443,20 C11.8507,20 9.5605,15.0193 11.0063,13.27 C12.6508,11.2804 14,9.6388 14,7.10767 C14,3.11894 11.0459,0 7.0443,0 C3.04277,0 0,3.16557 0,7.1543 C0,9.7293 1.52642,11.2678 3.18575,13.3362 C4.54437,15.0298 2.23801,20 7.0443,20 Z"/>
    <polygon stroke-linejoin="round" points="3 17 11 17 11 19 3 19"/>
    <line x1="7" x2="7" y1="13" y2="17" stroke-linecap="round" stroke-linejoin="round"/>
    <path d="M7,8 C8.1046,8 9,7.10457 9,6 C9,4.89543 8.1046,4 7,4 C5.8955,4 5,4.89543 5,6 C5,7.10457 5.8955,8 7,8 Z"/>
    <path stroke-linecap="round" d="M7,4 L7,2.5 M5.5547,4.58594 L4.37154,3.37901 M5,6 L3.5,6 M5.5547,7.44531 L4.5,8.5 M7,8 L7,9.5 M8.4453,7.44531 L9.6094,8.6094 M9,6 L10.5,6 M8.4453,4.58594 L9.4891,3.52118"/>
  </g>
</svg>
