<svg width="204" height="116" viewBox="0 0 204 116" fill="none" xmlns="http://www.w3.org/2000/svg">
<path d="M3.608 41V19.88H6.82V22.916C8.69733 20.54 10.9853 19.352 13.684 19.352C15.796 19.352 17.3507 19.968 18.348 21.2C19.3747 22.4027 19.888 23.9867 19.888 25.952V41H16.676V26.568C16.676 23.6933 15.4293 22.256 12.936 22.256C10.736 22.256 8.69733 23.5467 6.82 26.128V41H3.608ZM31.724 41.528C29.612 41.528 28.0427 40.9267 27.016 39.724C25.9894 38.492 25.476 36.8933 25.476 34.928V19.88H28.688V34.312C28.688 37.1867 29.9494 38.624 32.472 38.624C34.672 38.624 36.696 37.3333 38.544 34.752V19.88H41.756V36.556C41.756 38.2573 41.888 39.7387 42.152 41H38.896C38.7494 40.0613 38.6467 39.02 38.588 37.876C36.7987 40.3107 34.5107 41.528 31.724 41.528ZM47.7861 41V19.88H50.9981V22.872C52.9048 20.5253 55.0608 19.352 57.4661 19.352C60.2235 19.352 62.0275 20.54 62.8781 22.916C65.0195 20.54 67.2928 19.352 69.6981 19.352C71.7221 19.352 73.2181 19.9533 74.1861 21.156C75.1541 22.3587 75.6381 23.9573 75.6381 25.952V41H72.4261V26.568C72.4261 23.6933 71.2675 22.256 68.9501 22.256C66.9261 22.256 65.0488 23.356 63.3181 25.556V41H60.1061V26.568C60.1061 23.6933 58.9768 22.256 56.7181 22.256C54.7235 22.256 52.8168 23.532 50.9981 26.084V41H47.7861ZM88.2968 41.528C85.3928 41.528 83.0754 40.9853 81.3448 39.9V9.32H84.5568V21.552C85.9648 20.0853 87.7248 19.352 89.8368 19.352C92.6821 19.352 94.9114 20.364 96.5248 22.388C98.1381 24.3827 98.9448 27.0373 98.9448 30.352C98.9448 33.5787 97.9328 36.248 95.9088 38.36C93.9141 40.472 91.3768 41.528 88.2968 41.528ZM88.3408 38.756C90.5994 38.756 92.3594 37.9493 93.6208 36.336C94.8821 34.6933 95.5128 32.728 95.5128 30.44C95.5128 28.0347 94.9994 26.0693 93.9728 24.544C92.9461 23.0187 91.3621 22.256 89.2208 22.256C88.3701 22.256 87.5048 22.4613 86.6248 22.872C85.7448 23.2827 85.0554 23.7667 84.5568 24.324V38.096C85.4954 38.536 86.7568 38.756 88.3408 38.756ZM111.233 41.528C108.036 41.528 105.572 40.4867 103.841 38.404C102.11 36.292 101.245 33.5933 101.245 30.308C101.245 27.1693 102.125 24.5587 103.885 22.476C105.674 20.3933 107.962 19.352 110.749 19.352C113.33 19.352 115.354 20.2173 116.821 21.948C118.317 23.6493 119.065 25.952 119.065 28.856C119.065 29.1493 119.036 29.648 118.977 30.352H104.677C104.736 32.816 105.293 34.84 106.349 36.424C107.434 37.9787 109.092 38.756 111.321 38.756C113.198 38.756 115.149 38.1253 117.173 36.864L118.493 39.372C116.322 40.8093 113.902 41.528 111.233 41.528ZM104.853 27.8H115.765C115.706 26.1573 115.266 24.808 114.445 23.752C113.624 22.6667 112.362 22.124 110.661 22.124C109.048 22.124 107.742 22.6373 106.745 23.664C105.777 24.6907 105.146 26.0693 104.853 27.8ZM123.463 41V19.88H126.675V23.18C128.201 20.628 130.078 19.352 132.307 19.352C133.187 19.352 133.921 19.4987 134.507 19.792L133.715 22.872C133.334 22.6373 132.718 22.52 131.867 22.52C130.929 22.52 130.034 22.8573 129.183 23.532C128.333 24.2067 127.746 24.8227 127.423 25.38C127.101 25.908 126.851 26.392 126.675 26.832V41H123.463ZM137.475 41V11.696H154.283V16.8H143.679V23.972H153.007V28.812H143.679V41H137.475ZM163.078 15.788C162.403 16.4627 161.552 16.8 160.526 16.8C159.499 16.8 158.648 16.4627 157.974 15.788C157.299 15.084 156.962 14.248 156.962 13.28C156.962 12.3413 157.299 11.5347 157.974 10.86C158.648 10.1853 159.499 9.848 160.526 9.848C161.552 9.848 162.403 10.1853 163.078 10.86C163.782 11.5347 164.134 12.3413 164.134 13.28C164.134 14.248 163.782 15.084 163.078 15.788ZM157.578 41V19.572H163.474V41H157.578ZM168.358 41V19.572H174.21V22.476C175.559 20.188 177.363 19.044 179.622 19.044C180.854 19.044 181.822 19.2347 182.526 19.616L181.118 24.72C180.59 24.3973 179.842 24.236 178.874 24.236C176.938 24.236 175.383 25.3213 174.21 27.492V41H168.358ZM193.51 41.528C189.99 41.528 187.232 40.5013 185.238 38.448C183.272 36.3947 182.29 33.6373 182.29 30.176C182.29 26.8613 183.302 24.1773 185.326 22.124C187.35 20.0707 189.872 19.044 192.894 19.044C195.915 19.044 198.218 19.968 199.802 21.816C201.415 23.6347 202.222 26.2307 202.222 29.604C202.222 30.0147 202.192 30.6893 202.134 31.628H188.582C188.728 33.3 189.242 34.6493 190.122 35.676C191.031 36.6733 192.336 37.172 194.038 37.172C195.768 37.172 197.631 36.6733 199.626 35.676L201.518 39.46C199.054 40.8387 196.384 41.528 193.51 41.528ZM188.494 27.668H196.502C196.443 24.7347 195.211 23.268 192.806 23.268C190.4 23.268 188.963 24.7347 188.494 27.668Z" fill="white"/>
<path fill-rule="evenodd" clip-rule="evenodd" d="M2.71186 53C1.21414 53 0 54.2141 0 55.7119V113.288C0 114.786 1.21414 116 2.71186 116H201.288C202.786 116 204 114.786 204 113.288V55.7119C204 54.2141 202.786 53 201.288 53H2.71186ZM10.482 77.8368C10.482 82.9419 13.1632 85.3951 16.1636 86.1907L30.7187 90.1024C31.8039 90.3676 32.2508 90.8317 32.2508 91.9588V97.727C32.2508 98.8541 31.7401 99.3845 30.6548 99.3845H21.3345C20.2493 99.3845 19.7385 98.8541 19.7385 97.727V93.9478H10.099V98.1248C10.099 104.423 13.3547 107.871 19.2278 107.871H32.57C38.6346 107.871 41.9542 104.423 41.9542 98.1248V89.6383C41.9542 85.6603 39.8475 82.8756 35.698 81.7485L21.526 77.9694C20.3769 77.6379 20.1216 77.2401 20.1216 76.0467V71.273C20.1216 70.1459 20.6323 69.6155 21.7175 69.6155H30.208C31.2932 69.6155 31.8039 70.1459 31.8039 71.273V75.45H41.4435V70.8752C41.4435 64.5767 38.1877 61.129 32.3146 61.129H19.8662C13.8016 61.129 10.482 64.5767 10.482 70.8752V77.8368ZM71.3854 91.6936V97.5281C71.3854 98.6552 70.8632 99.1856 69.7535 99.1856H61.0063C59.8966 99.1856 59.3744 98.6552 59.3744 97.5281V71.4719C59.3744 70.3448 59.8966 69.8144 61.0063 69.8144H69.7535C70.8632 69.8144 71.3854 70.3448 71.3854 71.4719V75.9804H81.2422V70.8752C81.2422 64.5767 77.8478 61.129 71.6465 61.129H58.9828C52.7814 61.129 49.387 64.5767 49.387 70.8752V98.1248C49.387 104.423 52.7814 107.871 58.9828 107.871H71.6465C77.8478 107.871 81.2422 104.423 81.2422 98.1248V91.6936H71.3854ZM119.468 98.1248C119.468 104.423 116.059 107.871 109.829 107.871H96.1904C89.9611 107.871 86.5514 104.423 86.5514 98.1248V70.8752C86.5514 64.5767 89.9611 61.129 96.1904 61.129H109.829C116.059 61.129 119.468 64.5767 119.468 70.8752V98.1248ZM97.1698 71.4815C97.1698 70.3552 97.6899 69.8252 98.7951 69.8252H108.287C109.392 69.8252 109.912 70.3552 109.912 71.4815V97.5185C109.912 98.6448 109.392 99.1748 108.287 99.1748H98.7951C97.6899 99.1748 97.1698 98.6448 97.1698 97.5185V71.4815ZM149.786 97.3357V61.129H159.818V98.0692C159.818 104.404 156.409 107.871 150.179 107.871H136.54C130.311 107.871 126.901 104.404 126.901 98.0692V61.129H136.934V97.3357C136.934 98.4692 137.458 99.0027 138.573 99.0027H148.147C149.261 99.0027 149.786 98.4692 149.786 97.3357ZM195.921 70.0482H185.443V107.871H175.669V70.0482H165.127V61.129H195.921V70.0482Z" fill="white"/>
</svg>
