<svg xmlns="http://www.w3.org/2000/svg" width="44" height="41" viewBox="0 0 44 41">
  <g fill="none" fill-rule="evenodd">
    <path fill="#101E26" d="M22.65463,6.23122785 C14.9227279,6.23122785 8.65475527,12.4992005 8.65475527,20.2311026 C8.65475527,27.9632552 14.9227279,34.2312278 22.65463,34.2312278 C30.3867826,34.2312278 36.6547553,27.9632552 36.6547553,20.2311026 C36.6547553,12.4992005 30.3867826,6.23122785 22.65463,6.23122785"/>
    <path fill="#FFF" d="M22.6547089,15.0424304 C19.7890464,15.0424304 17.4659578,17.365519 17.4659578,20.2311814 C17.4659578,23.0969367 19.7890464,25.4200253 22.6547089,25.4200253 C25.5204641,25.4200253 27.8435527,23.0969367 27.8435527,20.2311814 C27.8435527,17.365519 25.5204641,15.0424304 22.6547089,15.0424304"/>
    <path fill="#0ED5F8" d="M4.60765401 8.06351055C5.38702954 6.91022785 6.28113924 5.82637975 7.26547679 4.84213502L6.30323207 3.8798903C5.25753586 4.92521519 4.30772996 6.07654852 3.47989873 7.30167932 2.64473418 8.53804219 1.92755274 9.8594346 1.34766245 11.2297468.757097046 12.6266076.303729958 14.0873333 0 15.5715443L1.33345992 15.8440844C1.61899578 14.4481519 2.04562869 13.0738481 2.60119831 11.7600675 3.14664979 10.4705148 3.82178059 9.22681857 4.60765401 8.06351055M42.7084051 28.7023882C42.1628608 29.9919409 41.4878228 31.2356371 40.7018565 32.3989451 39.9233165 33.5512068 39.0291139 34.6351477 38.0439409 35.6203207 37.0583038 36.6057722 35.9745485 37.4999747 34.8225654 38.2781435L35.5843038 39.4058987C36.8080422 38.5795527 37.9593755 37.6295612 39.0061857 36.5825654 40.0527173 35.5362194 41.0025232 34.3848861 41.829519 33.1607764 42.6646835 31.9247848 43.3820506 30.6029283 43.9617553 29.2327089L42.7084051 28.7023882"/>
    <path fill="#0ED5F8" d="M22.6547089,37.9980844 C12.8580253,37.9980844 4.88771308,30.0277722 4.88771308,20.2310886 C4.88771308,10.4343122 12.8580253,2.46409283 22.6547089,2.46409283 C32.4514852,2.46409283 40.4217046,10.4343122 40.4217046,20.2310886 C40.4217046,30.0277722 32.4514852,37.9980844 22.6547089,37.9980844 Z M42.8034599,20.2310886 C42.8034599,9.12118143 33.7648017,0.0823375527 22.6547089,0.0823375527 C11.5447089,0.0823375527 2.50605063,9.12118143 2.50605063,20.2310886 C2.50605063,31.340903 11.5447089,40.3797468 22.6547089,40.3797468 C33.7648017,40.3797468 42.8034599,31.340903 42.8034599,20.2310886 L42.8034599,20.2310886 Z"/>
    <path fill="#0ED5F8" d="M7.74427848 26.5303291C8.55939241 28.4571392 9.72594937 30.1879916 11.2120169 31.6738734L12.1743544 30.7116287C10.8130464 29.3499494 9.74423629 27.7650211 8.998 26.0000084L7.74427848 26.5303291M22.6547089 5.40967932C24.6556878 5.40967932 26.5966076 5.80140928 28.4236287 6.57428692 30.1885485 7.32089451 31.7736624 8.38951899 33.1351561 9.750827L34.0974008 8.78858228C32.6114262 7.30260759 30.8809451 6.13605063 28.9539494 5.32093671 26.9583544 4.47667511 24.8389283 4.04864979 22.6547089 4.04864979 20.4706751 4.04864979 18.3514346 4.47667511 16.3554684 5.32093671L16.885789 6.57428692C18.7129958 5.80140928 20.6539156 5.40967932 22.6547089 5.40967932"/>
    <path fill="#B81F2D" d="M22.6547089,13.1250886 C26.3433755,13.1250886 29.3825316,15.9506498 29.7264557,19.5505738 L36.2083797,19.5505738 C35.8525738,12.3826582 29.9095105,6.66033755 22.6547089,6.66033755 C15.4,6.66033755 9.45693671,12.3826582 9.1011308,19.5505738 L15.5830549,19.5505738 C15.9269789,15.9506498 18.966135,13.1250886 22.6547089,13.1250886"/>
    <path fill="#FFF" d="M22.6547089,27.3373671 C18.9660422,27.3373671 15.9268861,24.5117131 15.5830549,20.9115105 L9.1011308,20.9115105 C9.45684388,28.0797046 15.4,33.8021181 22.6547089,33.8021181 C29.9095105,33.8021181 35.8525738,28.0797046 36.2083797,20.9115105 L29.7264557,20.9115105 C29.3825316,24.5117131 26.3433755,27.3373671 22.6547089,27.3373671"/>
  </g>
</svg>
