<svg xmlns="http://www.w3.org/2000/svg" width="44" height="34" viewBox="0 0 44 34">
  <g fill="none" fill-rule="evenodd">
    <path fill="#DE0029" d="M23.6883311,6.96698734 L23.6595731,33.3475254 L16.59147,31.0487691 L16.59147,0.0409831643 L25.6135004,2.42628016 C31.3885707,3.97840095 34.9227535,6.99547855 34.86524,12.2831777 C34.8078144,18.4331664 31.9632816,20.9042923 26.417918,19.2950139 L26.417918,7.16775844 C26.417918,5.70209045 23.6883311,5.61626154 23.6883311,6.96698734 L23.6883311,6.96698734 Z"/>
    <path fill="#F3C202" d="M13.3445068,25.9329029 L10.0114479,27.0539257 C7.85621413,27.8012742 6.01758429,26.0483811 8.00009254,25.3295244 L9.60901689,24.7551694 L3.54636956,22.8293743 C1.67862486,23.4618692 -0.0741776588,24.8125071 0.0410317233,26.7092768 C0.155973963,28.6344498 4.55191447,29.0944853 7.94266632,29.6405261 C11.1030876,30.157544 13.976379,29.8702322 16.5913821,28.9506075 L16.5913821,26.967562 L13.3445068,25.9329029 L13.3445068,25.9329029 Z M23.7169987,33.3475254 L29.8945873,31.192023 L23.6595731,29.2094256 L23.6595731,33.2035597 L23.7169987,33.3475254 L23.7169987,33.3475254 Z"/>
    <path fill="#326DB3" d="M40.1522274,27.5714759 L40.2670786,27.5425409 C42.9680016,26.5945135 44.1173361,25.2720988 43.8302,24.0368481 C43.3704326,21.9678864 40.0661311,20.8468667 34.9802713,20.4731912 C31.3313209,20.2147259 27.7398004,21.019146 24.2343719,22.2259952 L23.659661,22.4273896 L29.9521924,24.381497 L33.6299014,23.145623 C37.4801552,22.4273896 39.032008,23.6916638 35.3252761,24.8700243 L33.4862879,25.5018934 L40.1522274,27.5714759 L40.1522274,27.5714759 Z M16.59147,18.4331664 L13.8040985,19.3811975 L16.59147,20.2433966 L16.59147,18.4331664 L16.59147,18.4331664 Z"/>
    <path fill="#00AA9E" d="M29.8945873,31.192023 L40.1522274,27.5714759 L33.4861121,25.5018934 L23.6595731,28.8641553 L23.6595731,29.2094256 L29.8945873,31.192023 L29.8945873,31.192023 Z M16.59147,24.8409971 L13.3445953,25.9329945 L16.59147,26.967562 L16.59147,24.8409971 L16.59147,24.8409971 Z M23.6595731,26.5369969 L23.6595731,22.4273896 L29.9521045,24.381497 L23.6595731,26.5369969 L23.6595731,26.5369969 Z M9.60910663,24.7551694 L16.5913821,22.2550175 L16.5913821,20.2433966 L13.8040985,19.3811975 L3.69007021,22.8009741 C3.66131161,22.8009741 3.60388527,22.8293743 3.54645899,22.8293743 L9.60910663,24.7551694 L9.60910663,24.7551694 Z"/>
  </g>
</svg>
