<svg xmlns="http://www.w3.org/2000/svg" width="16" height="22" viewBox="0 0 16 22">
  <g fill="none" fill-rule="evenodd" transform="translate(1 1)">
    <path stroke="#FFF" stroke-linecap="round" stroke-linejoin="round" d="M13.7,11 L0.3,11 C0.1,11.63 0,12.3 0,13 C0,16.87 3.13,20 7,20 C10.87,20 14,16.87 14,13 C14,12.3 13.9,11.63 13.7,11 Z"/>
    <path d="M5,6.29 C2.75005,6.97 0.96005,8.74 0.30005,11 L13.7,11 C13.04,8.74 11.25,6.97 9,6.29 L8.99,6.29 L9,6.29 L9,3.16 C9,3.05 9.02,2.95 9.05,2.84 L10,0 L4.00005,0 L4.95005,2.85 C4.98005,2.95 5,3.05 5,3.16 L5,6.29 L5.01,6.29 L5,6.29 Z"/>
    <path stroke="#FFF" stroke-linecap="round" stroke-linejoin="round" d="M5,6.29 C2.75005,6.97 0.96005,8.74 0.30005,11 L13.7,11 C13.04,8.74 11.25,6.97 9,6.29 L8.99,6.29 L9,6.29 L9,3.16 C9,3.05 9.02,2.95 9.05,2.84 L10,0 L4.00005,0 L4.95005,2.85 C4.98005,2.95 5,3.05 5,3.16 L5,6.29 Z"/>
  </g>
</svg>
