<svg xmlns="http://www.w3.org/2000/svg" width="44" height="44" viewBox="0 0 44 44">
  <path fill="#1ED760" fill-rule="evenodd" d="M779.013792,870.503481 C771.922238,866.292001 760.224878,865.904768 753.455143,867.959412 C752.367792,868.289373 751.218179,867.675686 750.888743,866.588598 C750.559306,865.500722 751.172468,864.351898 752.260344,864.021411 C760.031525,861.662551 772.950217,862.118087 781.114147,866.964272 C782.091948,867.544857 782.412715,868.807697 781.83318,869.783922 C781.25312,870.761723 779.989229,871.084067 779.013792,870.503481 Z M778.781558,876.741232 C778.283988,877.548535 777.228425,877.801786 776.422173,877.306055 C770.509917,873.672008 761.494549,872.619073 754.499934,874.742283 C753.592802,875.016288 752.634967,874.505057 752.359385,873.599501 C752.086168,872.692631 752.597662,871.736372 753.503218,871.460528 C761.493498,869.035728 771.42677,870.210035 778.21726,874.38316 C779.023512,874.879679 779.277289,875.935768 778.781558,876.741232 Z M776.089584,882.731775 C775.694207,883.380139 774.850125,883.583213 774.204125,883.188099 C769.037961,880.030606 762.5354,879.317615 754.877446,881.066728 C754.139498,881.235912 753.403914,880.773545 753.235518,880.035597 C753.066597,879.297911 753.527387,878.562328 754.266912,878.393931 C762.647314,876.478261 769.835807,877.30264 775.634572,880.846053 C776.281098,881.240904 776.484697,882.085512 776.089584,882.731775 Z M766,851 C753.849993,851 744,860.849731 744,872.999737 C744,885.151057 753.849993,895 766,895 C778.150532,895 788,885.151057 788,872.999737 C788,860.849731 778.150532,851 766,851 L766,851 Z" transform="translate(-744 -851)"/>
</svg>
