<svg xmlns="http://www.w3.org/2000/svg" width="44" height="36" viewBox="0 0 44 36">
  <path fill="#1DA1F2" d="M237.83712,891 C254.44096,891 263.52256,877.148645 263.52256,865.136812 C263.52256,864.743388 263.52256,864.351736 263.49616,863.961857 C265.262903,862.675097 266.787986,861.081852 268,859.25672 C266.352427,859.991824 264.60466,860.473904 262.81504,860.686869 C264.699549,859.55087 266.109977,857.764141 266.78384,855.659196 C265.011797,856.717994 263.073137,857.464182 261.05152,857.865559 C258.253266,854.869503 253.806866,854.136207 250.205607,856.076863 C246.604347,858.017519 244.743844,862.149495 245.66736,866.155815 C238.408936,865.789416 231.646277,862.337341 227.0624,856.658705 C224.666376,860.812064 225.890219,866.125439 229.85728,868.792818 C228.420665,868.749945 227.015372,868.359721 225.76,867.655079 C225.76,867.692295 225.76,867.731283 225.76,867.770271 C225.761176,872.097212 228.790283,875.824003 233.0024,876.680789 C231.67337,877.045752 230.278942,877.099102 228.92624,876.836741 C230.108868,880.539574 233.497971,883.076202 237.36016,883.149245 C234.163534,885.67891 230.214665,887.052165 226.14896,887.04804 C225.43071,887.046651 224.713159,887.002862 224,886.916898 C228.128319,889.584519 232.931848,890.999498 237.83712,890.992911" transform="translate(-224 -855)"/>
</svg>
